name analog
datacolumns 19
datarows 32
range 0.0 0.0155
endheader
time	ground_force_vx	ground_force_vy	ground_force_vz	ground_force_px	ground_force_py	ground_force_pz	l_ground_force_vx	l_ground_force_vy	l_ground_force_vz	l_ground_force_px	l_ground_force_py	l_ground_force_pz	ground_torque_x	ground_torque_y	ground_torque_z	l_ground_torque_x	l_ground_torque_y	l_ground_torque_z
0.0	-0.0	-0.0	-0.0	-2.702095031738281	49.55650329589844	-335.5209350585937	0.8825473189353943	-42.09470748901367	-311.4432373046875	-0.0	-0.0	-0.0	-0.0	-0.0	-0.0	78508.9453125	-2589.28857421875	-1889.041015625
0.0005	-0.0	-0.0	-0.0	-2.9719738960266118	49.5539436340332	-333.8355407714844	0.7400797009468079	-42.5358772277832	-310.7546691894531	-0.0	-0.0	-0.0	-0.0	-0.0	-0.0	78470.1796875	-2536.13720703125	-1809.6209716796875
0.001	-0.0	-0.0	-0.0	-2.854736328125	49.17213821411133	-333.9757385253906	0.6487448811531067	-42.4577751159668	-311.2140197753906	-0.0	-0.0	-0.0	-0.0	-0.0	-0.0	78754.8828125	-2619.173583984375	-1751.215576171875
0.0015	-0.0	-0.0	-0.0	-2.682333707809448	48.79706954956055	-333.6571960449219	0.4159247875213623	-42.24527740478516	-312.0213623046875	-0.0	-0.0	-0.0	-0.0	-0.0	-0.0	78721.140625	-2553.64306640625	-1761.5865478515625
0.002	-0.0	-0.0	-0.0	-3.12556791305542	48.28110122680664	-333.645751953125	0.3610462546348572	-42.601524353027344	-312.1293640136719	-0.0	-0.0	-0.0	-0.0	-0.0	-0.0	78631.7421875	-2598.780029296875	-1857.89404296875
0.0025	-0.0	-0.0	-0.0	-3.094919919967652	47.92473602294922	-332.8177490234375	0.6790049076080322	-42.28218078613281	-313.0551147460937	-0.0	-0.0	-0.0	-0.0	-0.0	-0.0	78917.1953125	-2697.51025390625	-1989.7174072265625
0.003	-0.0	-0.0	-0.0	-3.623060703277588	47.09177017211914	-331.2971496582031	0.7333832383155823	-42.07524490356445	-312.9331359863281	-0.0	-0.0	-0.0	-0.0	-0.0	-0.0	79017.2734375	-2462.01171875	-1948.609130859375
0.0035	-0.0	-0.0	-0.0	-3.6499414443969727	46.58036804199219	-331.635986328125	0.3511005938053131	-42.07553482055664	-312.3988647460937	-0.0	-0.0	-0.0	-0.0	-0.0	-0.0	78749.9375	-2670.840576171875	-2056.0048828125
0.004	-0.0	-0.0	-0.0	-3.1034865379333496	46.11555099487305	-331.1758117675781	0.5322647094726562	-41.653133392333984	-312.4159545898437	-0.0	-0.0	-0.0	-0.0	-0.0	-0.0	78887.234375	-2453.39404296875	-2019.6790771484373
0.0045000000000000005	-0.0	-0.0	-0.0	-3.559896945953369	45.71963882446289	-331.42303466796875	0.647774338722229	-41.94866180419922	-312.49072265625	-0.0	-0.0	-0.0	-0.0	-0.0	-0.0	78840.8046875	-2543.156982421875	-1985.943603515625
0.005	-0.0	-0.0	-0.0	-3.421234607696533	45.140174865722656	-332.20086669921875	0.7407194972038269	-41.69220733642578	-312.3512878417969	-0.0	-0.0	-0.0	-0.0	-0.0	-0.0	78912.6640625	-2381.109619140625	-2085.078125
0.0055	-0.0	-0.0	-0.0	-3.20689058303833	44.94831466674805	-330.4525146484375	0.6474918723106384	-41.74519729614258	-313.4338073730469	-0.0	-0.0	-0.0	-0.0	-0.0	-0.0	78804.203125	-2540.11474609375	-2011.095703125
0.006	-0.0	-0.0	-0.0	-3.368431568145752	45.03730010986328	-329.66046142578125	0.7048929929733276	-41.74989700317383	-312.6322326660156	-0.0	-0.0	-0.0	-0.0	-0.0	-0.0	79005.578125	-2656.585693359375	-2116.25
0.006500000000000001	-0.0	-0.0	-0.0	-3.5421066284179688	45.03201675415039	-328.02032470703125	0.5584849119186401	-41.54230117797852	-312.2447814941406	-0.0	-0.0	-0.0	-0.0	-0.0	-0.0	79006.0703125	-2301.948974609375	-2161.820556640625
0.007	-0.0	-0.0	-0.0	-3.5946056842803955	45.00553131103516	-328.45733642578125	0.3652765452861786	-41.454044342041016	-313.4354858398437	-0.0	-0.0	-0.0	-0.0	-0.0	-0.0	78811.578125	-2490.56640625	-2085.0078125
0.0075	-0.0	-0.0	-0.0	-3.657630920410156	45.23560333251953	-328.7294006347656	0.4435539245605469	-41.62534713745117	-313.4146423339844	-0.0	-0.0	-0.0	-0.0	-0.0	-0.0	78949.1171875	-2387.3857421875	-2105.91064453125
0.008	-0.0	-0.0	-0.0	-3.925262451171875	45.20641708374024	-328.45733642578125	0.5322647094726562	-41.85321044921875	-312.6145324707031	-0.0	-0.0	-0.0	-0.0	-0.0	-0.0	79116.53125	-2604.63037109375	-1948.933837890625
0.0085	-0.0	-0.0	-0.0	-4.008508205413818	45.78133010864258	-326.1106872558594	0.5007441639900208	-41.83892440795898	-312.9869689941406	-0.0	-0.0	-0.0	-0.0	-0.0	-0.0	78941.4296875	-2339.88232421875	-2090.66650390625
0.009000000000000001	-0.0	-0.0	-0.0	-3.75923752784729	45.99128723144531	-327.1460266113281	0.3487605452537536	-41.996376037597656	-312.3184814453125	-0.0	-0.0	-0.0	-0.0	-0.0	-0.0	78728.1328125	-2398.80322265625	-2095.433837890625
0.0095	-0.0	-0.0	-0.0	-3.759619235992432	46.26506423950195	-327.01934814453125	0.468942642211914	-42.31887435913086	-313.66278076171875	-0.0	-0.0	-0.0	-0.0	-0.0	-0.0	78907.1953125	-2462.3994140625	-2108.072509765625
0.01	-0.0	-0.0	-0.0	-3.2754530906677246	46.30930709838867	-325.4313049316406	0.3295954763889313	-42.50786590576172	-313.6630554199219	-0.0	-0.0	-0.0	-0.0	-0.0	-0.0	78842.1875	-2303.72216796875	-2084.877197265625
0.0105	-0.0	-0.0	-0.0	-3.351149559020996	46.59004211425781	-325.35137939453125	0.2092303931713104	-42.61433410644531	-312.9386291503906	-0.0	-0.0	-0.0	-0.0	-0.0	-0.0	78635.71875	-2273.14697265625	-2138.095458984375
0.011	-0.0	-0.0	-0.0	-2.961970329284668	47.00377655029297	-325.1795349121094	0.2092944532632827	-42.722843170166016	-313.3855285644531	-0.0	-0.0	-0.0	-0.0	-0.0	-0.0	78731.921875	-2435.66357421875	-2103.881591796875
0.0115	-0.0	-0.0	-0.0	-3.001004695892334	46.736454010009766	-326.0137939453125	0.1277827322483062	-42.98085784912109	-311.8204345703125	-0.0	-0.0	-0.0	-0.0	-0.0	-0.0	78969.671875	-2336.016845703125	-2068.327392578125
0.012	-0.0	-0.0	-0.0	-2.9514200687408447	46.639930725097656	-326.50469970703125	0.0566903539001941	-43.30219268798828	-313.70343017578125	-0.0	-0.0	-0.0	-0.0	-0.0	-0.0	78687.6640625	-1948.392333984375	-2303.339111328125
0.0125	-0.0	-0.0	-0.0	-2.2056360244750977	46.90719985961914	-325.8572692871094	-0.0566267259418964	-43.694801330566406	-313.8873291015625	-0.0	-0.0	-0.0	-0.0	-0.0	-0.0	78949.6015625	-1964.377197265625	-2206.27783203125
0.013000000000000001	-0.0	-0.0	-0.0	-2.3597412109375	46.60653305053711	-327.6228332519531	-0.113098919391632	-43.791015625	-313.6953430175781	-0.0	-0.0	-0.0	-0.0	-0.0	-0.0	78972.765625	-2137.1201171875	-2308.6884765625
0.0135	-0.0	-0.0	-0.0	-2.4086837768554688	46.86635208129883	-327.9437255859375	-0.2339076995849609	-44.28917694091797	-315.72711181640625	-0.0	-0.0	-0.0	-0.0	-0.0	-0.0	79205.4921875	-2116.930908203125	-2244.33154296875
0.014	-0.0	-0.0	-0.0	-1.711603760719299	46.1854362487793	-325.985107421875	0.0645902976393699	-44.28131866455078	-316.42633056640625	-0.0	-0.0	-0.0	-0.0	-0.0	-0.0	79349.65625	-2026.073486328125	-2152.479736328125
0.0145	-0.0	-0.0	-0.0	-1.5646721124649048	46.13699722290039	-327.5605773925781	-0.2505728900432586	-44.59408187866211	-315.3170166015625	-0.0	-0.0	-0.0	-0.0	-0.0	-0.0	79426.1484375	-1895.9051513671875	-2163.34423828125
0.015	-0.0	-0.0	-0.0	-1.3381576538085938	46.31519317626953	-326.2435913085937	-0.363440990447998	-44.48183822631836	-317.1235046386719	-0.0	-0.0	-0.0	-0.0	-0.0	-0.0	79601.5859375	-1917.4031982421875	-2214.6669921875
0.0155	-0.0	-0.0	-0.0	-1.1418410539627075	45.65851974487305	-327.9159545898437	-0.2159895896911621	-44.65237808227539	-316.8084716796875	-0.0	-0.0	-0.0	-0.0	-0.0	-0.0	79861.890625	-1903.548095703125	-2171.073974609375
